<mxfile host="app.diagrams.net" agent="Mozilla/5.0 (X11; Ubuntu; Linux x86_64; rv:139.0) Gecko/20100101 Firefox/139.0" version="27.1.0">
  <diagram name="Page-1" id="hl3eMsCdJ2C8hWJjg6ZI">
    <mxGraphModel dx="1426" dy="790" grid="1" gridSize="10" guides="1" tooltips="1" connect="1" arrows="1" fold="1" page="1" pageScale="1" pageWidth="850" pageHeight="1100" math="0" shadow="0">
      <root>
        <mxCell id="0" />
        <mxCell id="1" parent="0" />
        <mxCell id="0Zl1hMwI67_ohH036ha6-6" value="" style="rounded=0;whiteSpace=wrap;html=1;" vertex="1" parent="1">
          <mxGeometry x="120" y="320" width="410" height="140" as="geometry" />
        </mxCell>
        <mxCell id="0Zl1hMwI67_ohH036ha6-1" value="&lt;div&gt;user-space&lt;/div&gt;&lt;div&gt;buffer&lt;/div&gt;" style="rounded=0;whiteSpace=wrap;html=1;fillColor=#d5e8d4;strokeColor=#82b366;" vertex="1" parent="1">
          <mxGeometry x="270" y="180" width="120" height="60" as="geometry" />
        </mxCell>
        <mxCell id="0Zl1hMwI67_ohH036ha6-2" value="buffer cache" style="rounded=0;whiteSpace=wrap;html=1;fillColor=#f8cecc;strokeColor=#b85450;" vertex="1" parent="1">
          <mxGeometry x="150" y="360" width="120" height="60" as="geometry" />
        </mxCell>
        <mxCell id="0Zl1hMwI67_ohH036ha6-13" style="edgeStyle=orthogonalEdgeStyle;rounded=0;orthogonalLoop=1;jettySize=auto;html=1;exitX=0.5;exitY=1;exitDx=0;exitDy=0;entryX=0.5;entryY=0;entryDx=0;entryDy=0;" edge="1" parent="1" source="0Zl1hMwI67_ohH036ha6-3" target="0Zl1hMwI67_ohH036ha6-5">
          <mxGeometry relative="1" as="geometry" />
        </mxCell>
        <mxCell id="0Zl1hMwI67_ohH036ha6-3" value="socket send buffer" style="rounded=0;whiteSpace=wrap;html=1;fillColor=#e1d5e7;strokeColor=#9673a6;" vertex="1" parent="1">
          <mxGeometry x="390" y="360" width="120" height="60" as="geometry" />
        </mxCell>
        <mxCell id="0Zl1hMwI67_ohH036ha6-12" style="edgeStyle=orthogonalEdgeStyle;rounded=0;orthogonalLoop=1;jettySize=auto;html=1;exitX=0.5;exitY=0;exitDx=0;exitDy=0;entryX=0.5;entryY=1;entryDx=0;entryDy=0;" edge="1" parent="1" source="0Zl1hMwI67_ohH036ha6-4" target="0Zl1hMwI67_ohH036ha6-2">
          <mxGeometry relative="1" as="geometry" />
        </mxCell>
        <mxCell id="0Zl1hMwI67_ohH036ha6-4" value="disk file" style="rounded=0;whiteSpace=wrap;html=1;fillColor=#ffe6cc;strokeColor=#d79b00;" vertex="1" parent="1">
          <mxGeometry x="150" y="480" width="120" height="60" as="geometry" />
        </mxCell>
        <mxCell id="0Zl1hMwI67_ohH036ha6-5" value="network" style="rounded=0;whiteSpace=wrap;html=1;fillColor=#dae8fc;strokeColor=#6c8ebf;" vertex="1" parent="1">
          <mxGeometry x="390" y="480" width="120" height="60" as="geometry" />
        </mxCell>
        <mxCell id="0Zl1hMwI67_ohH036ha6-7" value="" style="endArrow=classic;html=1;rounded=0;exitX=0.5;exitY=0;exitDx=0;exitDy=0;entryX=0.5;entryY=1;entryDx=0;entryDy=0;" edge="1" parent="1" source="0Zl1hMwI67_ohH036ha6-2" target="0Zl1hMwI67_ohH036ha6-1">
          <mxGeometry width="50" height="50" relative="1" as="geometry">
            <mxPoint x="510" y="440" as="sourcePoint" />
            <mxPoint x="560" y="390" as="targetPoint" />
          </mxGeometry>
        </mxCell>
        <mxCell id="0Zl1hMwI67_ohH036ha6-8" value="&lt;i&gt;read()&lt;/i&gt;" style="text;html=1;align=center;verticalAlign=middle;whiteSpace=wrap;rounded=0;rotation=-45;" vertex="1" parent="1">
          <mxGeometry x="230" y="270" width="60" height="30" as="geometry" />
        </mxCell>
        <mxCell id="0Zl1hMwI67_ohH036ha6-9" value="" style="endArrow=classic;html=1;rounded=0;exitX=0.5;exitY=1;exitDx=0;exitDy=0;entryX=0.5;entryY=0;entryDx=0;entryDy=0;" edge="1" parent="1" source="0Zl1hMwI67_ohH036ha6-1" target="0Zl1hMwI67_ohH036ha6-3">
          <mxGeometry width="50" height="50" relative="1" as="geometry">
            <mxPoint x="510" y="440" as="sourcePoint" />
            <mxPoint x="560" y="390" as="targetPoint" />
          </mxGeometry>
        </mxCell>
        <mxCell id="0Zl1hMwI67_ohH036ha6-10" value="&lt;i&gt;write()&lt;/i&gt;" style="text;html=1;align=center;verticalAlign=middle;whiteSpace=wrap;rounded=0;rotation=45;" vertex="1" parent="1">
          <mxGeometry x="369.9998051533947" y="269.9998051533947" width="60" height="30" as="geometry" />
        </mxCell>
        <mxCell id="0Zl1hMwI67_ohH036ha6-11" value="kernel" style="text;html=1;align=center;verticalAlign=middle;whiteSpace=wrap;rounded=0;" vertex="1" parent="1">
          <mxGeometry x="295" y="430" width="60" height="30" as="geometry" />
        </mxCell>
        <mxCell id="0Zl1hMwI67_ohH036ha6-14" value="" style="rounded=0;whiteSpace=wrap;html=1;" vertex="1" parent="1">
          <mxGeometry x="630" y="320" width="410" height="140" as="geometry" />
        </mxCell>
        <mxCell id="0Zl1hMwI67_ohH036ha6-22" style="edgeStyle=orthogonalEdgeStyle;rounded=0;orthogonalLoop=1;jettySize=auto;html=1;exitX=1;exitY=0.5;exitDx=0;exitDy=0;entryX=0;entryY=0.5;entryDx=0;entryDy=0;" edge="1" parent="1" source="0Zl1hMwI67_ohH036ha6-15" target="0Zl1hMwI67_ohH036ha6-17">
          <mxGeometry relative="1" as="geometry" />
        </mxCell>
        <mxCell id="0Zl1hMwI67_ohH036ha6-15" value="buffer cache" style="rounded=0;whiteSpace=wrap;html=1;fillColor=#f8cecc;strokeColor=#b85450;" vertex="1" parent="1">
          <mxGeometry x="660" y="360" width="120" height="60" as="geometry" />
        </mxCell>
        <mxCell id="0Zl1hMwI67_ohH036ha6-16" style="edgeStyle=orthogonalEdgeStyle;rounded=0;orthogonalLoop=1;jettySize=auto;html=1;exitX=0.5;exitY=1;exitDx=0;exitDy=0;entryX=0.5;entryY=0;entryDx=0;entryDy=0;" edge="1" parent="1" source="0Zl1hMwI67_ohH036ha6-17" target="0Zl1hMwI67_ohH036ha6-20">
          <mxGeometry relative="1" as="geometry" />
        </mxCell>
        <mxCell id="0Zl1hMwI67_ohH036ha6-17" value="socket send buffer" style="rounded=0;whiteSpace=wrap;html=1;fillColor=#e1d5e7;strokeColor=#9673a6;" vertex="1" parent="1">
          <mxGeometry x="900" y="360" width="120" height="60" as="geometry" />
        </mxCell>
        <mxCell id="0Zl1hMwI67_ohH036ha6-18" style="edgeStyle=orthogonalEdgeStyle;rounded=0;orthogonalLoop=1;jettySize=auto;html=1;exitX=0.5;exitY=0;exitDx=0;exitDy=0;entryX=0.5;entryY=1;entryDx=0;entryDy=0;" edge="1" parent="1" source="0Zl1hMwI67_ohH036ha6-19" target="0Zl1hMwI67_ohH036ha6-15">
          <mxGeometry relative="1" as="geometry" />
        </mxCell>
        <mxCell id="0Zl1hMwI67_ohH036ha6-19" value="disk file" style="rounded=0;whiteSpace=wrap;html=1;fillColor=#ffe6cc;strokeColor=#d79b00;" vertex="1" parent="1">
          <mxGeometry x="660" y="480" width="120" height="60" as="geometry" />
        </mxCell>
        <mxCell id="0Zl1hMwI67_ohH036ha6-20" value="network" style="rounded=0;whiteSpace=wrap;html=1;fillColor=#dae8fc;strokeColor=#6c8ebf;" vertex="1" parent="1">
          <mxGeometry x="900" y="480" width="120" height="60" as="geometry" />
        </mxCell>
        <mxCell id="0Zl1hMwI67_ohH036ha6-21" value="kernel" style="text;html=1;align=center;verticalAlign=middle;whiteSpace=wrap;rounded=0;" vertex="1" parent="1">
          <mxGeometry x="805" y="430" width="60" height="30" as="geometry" />
        </mxCell>
        <mxCell id="0Zl1hMwI67_ohH036ha6-23" value="&lt;i&gt;sendfile()&lt;/i&gt;" style="text;html=1;align=center;verticalAlign=middle;whiteSpace=wrap;rounded=0;" vertex="1" parent="1">
          <mxGeometry x="805" y="360" width="60" height="30" as="geometry" />
        </mxCell>
        <mxCell id="0Zl1hMwI67_ohH036ha6-24" value="&lt;b&gt;read() + write()&lt;/b&gt;" style="text;html=1;align=center;verticalAlign=middle;whiteSpace=wrap;rounded=0;" vertex="1" parent="1">
          <mxGeometry x="280" y="570" width="100" height="30" as="geometry" />
        </mxCell>
        <mxCell id="0Zl1hMwI67_ohH036ha6-25" value="&lt;b&gt;sendfile()&lt;/b&gt;" style="text;html=1;align=center;verticalAlign=middle;whiteSpace=wrap;rounded=0;" vertex="1" parent="1">
          <mxGeometry x="785" y="570" width="100" height="30" as="geometry" />
        </mxCell>
      </root>
    </mxGraphModel>
  </diagram>
</mxfile>
